<?xml version="1.0" encoding="UTF-8"?><svg xmlns="http://www.w3.org/2000/svg" viewBox="0 0 74.75 74.75"><defs><style>.d{fill:#fff;}</style></defs><g id="a"/><g id="b"><g id="c"><path d="M0,37.3C.03,16.63,16.76,0,37.38,0c20.8,0,37.46,17.09,37.36,37.55-.09,20.62-17.13,37.34-37.51,37.2C16.58,74.6-.03,58,0,37.3Zm2.6,1.49c7.96,1.96,63.71,1.86,69.68-.17,0-.71,.04-1.49,0-2.27-.2-3.44-.78-6.81-1.82-10.12-.44-1.4-1.19-2.01-2.57-2.28-8-1.54-16.06-2.64-24.2-2.78-6.74-.11-13.5-.04-20.21,.43-5.65,.4-11.25,1.5-16.88,2.26-1.21,.16-1.88,.79-2.17,1.95-.49,1.99-1.16,3.94-1.5,5.95-.39,2.32-.76,4.68-.32,7.02Zm69.3,3.26c-7.91,.31-15.55,.71-23.2,.86-7.6,.15-15.2,.15-22.8,.01-7.64-.14-15.27-.53-22.99-.81,.04,.58,.04,.97,.11,1.35,.53,3.08,1.56,5.99,2.83,8.84,.5,1.12,1.21,1.61,2.36,1.75,4,.51,7.98,1.16,11.98,1.56,12.65,1.28,25.33,1.56,38.02,.8,2.57-.15,5.13-.44,7.7-.63,.7-.05,1.25-.22,1.63-.89,2.25-3.94,3.77-8.12,4.37-12.85Zm-4.12-21.26c-1.69-3.61-4.1-6.54-6.9-9.17-.89-.83-1.87-1.39-3.06-1.71-4.54-1.23-9.14-2.04-13.83-2.44-9.1-.78-18.08-.12-26.92,2.2-.86,.22-1.72,.7-2.41,1.27-2.82,2.34-5.15,5.11-7.06,8.24-.27,.44-.45,.92-.83,1.7,20.49-3.69,40.71-3.66,61.01-.08ZM9.09,57.34c.99,1.93,2.39,3.39,3.79,4.87,.89,.94,1.93,1.52,3.18,1.86,8.09,2.24,16.34,3.06,24.71,2.69,6.35-.28,12.6-1.29,18.69-3.17,2.37-.73,3.58-2.63,4.86-4.58-9.23,.64-18.39,.77-27.55,.56-9.24-.21-18.42-1.11-27.68-2.23Zm45.05,10.38c-3.81,.48-7.38,1.1-10.98,1.33-3.68,.24-7.39,.24-11.07,.07-3.53-.16-7.04-.68-10.91-1.07,9.34,5.69,23.82,5.54,32.95-.32Zm-2.86-61.87c-5.35-4.28-22.7-4.31-27.49-.15,9.18-1.47,18.17-1.34,27.49,.15Z"/><path class="d" d="M2.6,38.79c-.43-2.34-.07-4.7,.32-7.02,.34-2.01,1.01-3.96,1.5-5.95,.29-1.16,.95-1.78,2.17-1.95,5.63-.76,11.23-1.86,16.88-2.26,6.72-.47,13.48-.55,20.21-.43,8.14,.14,16.2,1.24,24.2,2.78,1.38,.27,2.13,.88,2.57,2.28,1.04,3.31,1.62,6.67,1.82,10.12,.04,.78,0,1.56,0,2.27-5.97,2.03-61.72,2.14-69.68,.17Z"/><path class="d" d="M71.9,42.05c-.61,4.73-2.12,8.91-4.37,12.85-.38,.67-.93,.84-1.63,.89-2.57,.19-5.13,.48-7.7,.63-12.69,.76-25.37,.48-38.02-.8-4.01-.41-7.99-1.06-11.98-1.56-1.15-.15-1.86-.63-2.36-1.75-1.27-2.85-2.29-5.77-2.83-8.84-.07-.38-.06-.77-.11-1.35,7.72,.28,15.36,.67,22.99,.81,7.6,.14,15.2,.14,22.8-.01,7.65-.15,15.29-.56,23.2-.86Z"/><path class="d" d="M67.79,20.79c-20.31-3.58-40.53-3.61-61.01,.08,.38-.78,.57-1.26,.83-1.7,1.91-3.13,4.25-5.9,7.06-8.24,.69-.57,1.55-1.05,2.41-1.27,8.84-2.32,17.82-2.97,26.92-2.2,4.69,.4,9.29,1.21,13.83,2.44,1.19,.32,2.17,.88,3.06,1.71,2.8,2.64,5.21,5.56,6.9,9.17Z"/><path class="d" d="M9.09,57.34c9.25,1.13,18.44,2.02,27.68,2.23,9.16,.21,18.32,.09,27.55-.56-1.28,1.95-2.49,3.85-4.86,4.58-6.09,1.88-12.34,2.88-18.69,3.17-8.37,.37-16.61-.44-24.71-2.69-1.25-.35-2.29-.92-3.18-1.86-1.4-1.48-2.79-2.94-3.79-4.87Z"/><path class="d" d="M54.14,67.72c-9.13,5.86-23.61,6.01-32.95,.32,3.87,.4,7.38,.91,10.91,1.07,3.68,.17,7.39,.17,11.07-.07,3.6-.23,7.17-.85,10.98-1.33Z"/><path class="d" d="M51.28,5.85c-9.32-1.49-18.31-1.62-27.49-.15,4.79-4.16,22.14-4.13,27.49,.15Z"/></g></g></svg>